<svg xmlns="http://www.w3.org/2000/svg" viewBox="0 0 58 76"><defs><style>.cls-1{fill:#66b2fd;}</style></defs><g id="Layer_2" data-name="Layer 2"><g id="Capa_1_copy" data-name="Capa 1 copy"><path class="cls-1" d="M49.08,76H8.92A8.93,8.93,0,0,1,0,67.09v-4.6c0-7.65,8.67-14.92,15-20.23.86-.72,1.67-1.4,2.38-2a2.9,2.9,0,0,0,0-4.48c-.71-.62-1.52-1.3-2.38-2C8.67,28.43,0,21.15,0,13.51V8.91A8.93,8.93,0,0,1,8.92,0H49.08A8.93,8.93,0,0,1,58,8.91v4.6c0,7.64-8.67,14.92-15,20.23-.86.72-1.67,1.4-2.38,2a2.9,2.9,0,0,0,0,4.48c.73.64,1.58,1.35,2.48,2.1A88.55,88.55,0,0,1,52.49,51,3,3,0,0,1,48,55a84,84,0,0,0-8.76-8.07c-.92-.77-1.79-1.49-2.57-2.17a8.83,8.83,0,0,1,0-13.44c.75-.65,1.58-1.35,2.46-2.08,4.82-4,12.88-10.81,12.88-15.69V8.91a3,3,0,0,0-3-3H8.92a3,3,0,0,0-3,3v4.6C6,18.39,14,25.16,18.83,29.2c.88.73,1.71,1.43,2.46,2.08a8.83,8.83,0,0,1,0,13.44c-.75.65-1.58,1.35-2.46,2.08C14,50.84,6,57.61,6,62.49v4.6a3,3,0,0,0,3,3H49.08a3,3,0,0,0,3-3,3,3,0,0,1,6,0A8.93,8.93,0,0,1,49.08,76ZM16.82,12.32A2.52,2.52,0,0,0,15,16.56l.07.08c2.26,2.42,10.78,9.59,10.89,9.68a4.73,4.73,0,0,0,6.16,0c.11-.09,8.63-7.26,10.89-9.68l.07-.08a2.52,2.52,0,0,0-1.86-4.24Z"/></g></g></svg>
